# xmcd CD database file
#
# Track frame offsets:
#	150
#	15950
#	30507
#	47497
#	66722
#	83825
#	97935
#	110525
#	124297
#	140457
#	154595
#	167345
#	180530
#	195610
#	213840
#	227575
#	242895
#
# Disc length: 3585 seconds
#
# Revision: 0
# Processed by: cddbd v1.5.1PL2 Copyright (c) Steve Scherf et al.
# Submitted via: CDex 1.51
#
DISCID=d50dff11
DTITLE=George Day - Country Feelin's
DYEAR=2000
DGENRE=Country
TTITLE0=Country Feelin's
TTITLE1=You Should Know By Now
TTITLE2=Ballad Of George
TTITLE3=All The Old Places
TTITLE4=She's Just An Old Time Memory
TTITLE5=High
TTITLE6=Where You Left Me
TTITLE7=It's Over
TTITLE8=Losin' My Life
TTITLE9=Beer On The Bar
TTITLE10=Blue Lonsome Blues
TTITLE11=Someone Like You
TTITLE12=I'm So Glad
TTITLE13=If I Had Her Here To Hold Me
TTITLE14=Wherever You Can Take Me
TTITLE15=You Make The Bad Times Feel Good
TTITLE16=I'm Just A Man
EXTD=YEAR: 2000
EXTT0=
EXTT1=
EXTT2=
EXTT3=
EXTT4=
EXTT5=
EXTT6=
EXTT7=
EXTT8=
EXTT9=
EXTT10=
EXTT11=
EXTT12=
EXTT13=
EXTT14=
EXTT15=
EXTT16=
PLAYORDER=
